<?xml version="1.0" encoding="UTF-8"?>
<!DOCTYPE svg PUBLIC "-//W3C//DTD SVG 1.1//EN" "http://www.w3.org/Graphics/SVG/1.1/DTD/svg11.dtd">
<!-- Creator: CorelDRAW -->
<svg xmlns="http://www.w3.org/2000/svg" xml:space="preserve" width="89.9354mm" height="89.9354mm" version="1.1" style="shape-rendering:geometricPrecision; text-rendering:geometricPrecision; image-rendering:optimizeQuality; fill-rule:evenodd; clip-rule:evenodd"
viewBox="0 0 9164.72 9164.72"
 xmlns:xlink="http://www.w3.org/1999/xlink"
 xmlns:xodm="http://www.corel.com/coreldraw/odm/2003">
 <defs>
  <style type="text/css">
   <![CDATA[
    .fil1 {fill:#30C2FE}
    .fil0 {fill:#192EBD;fill-rule:nonzero}
   ]]>
  </style>
 </defs>
 <g id="Слой_x0020_1">
  <metadata id="CorelCorpID_0Corel-Layer"/>
  <path class="fil0" d="M4582.35 0c1265.36,0 2410.97,512.91 3240.21,1342.16 829.25,829.24 1342.16,1974.85 1342.16,3240.21 0,1265.34 -512.91,2410.95 -1342.16,3240.2 -829.24,829.24 -1974.85,1342.15 -3240.21,1342.15 -1265.34,0 -2410.95,-512.91 -3240.2,-1342.15 -829.24,-829.25 -1342.15,-1974.86 -1342.15,-3240.2 0,-1265.36 512.91,-2410.97 1342.15,-3240.21 114.93,-114.93 235.96,-223.75 362.5,-325.99 699.64,-632.14 1621.06,-1016.17 2630.55,-1016.17 39.58,0 79,0.66 118.29,1.83 42.81,-1.18 85.76,-1.83 128.86,-1.83zm-278.84 3860.61c0,-371.61 295.03,-672.87 658.97,-672.87 5.47,0 10.92,0.08 16.37,0.21l1.33 0.04c5.19,0.14 10.36,0.33 15.52,0.59l0.69 0.03 0.91 0.05c5.22,0.28 10.42,0.61 15.6,1.02l0.7 0.06c5.28,0.42 10.56,0.89 15.8,1.43l0.71 0.07c5.43,0.56 10.84,1.2 16.22,1.9l0.18 0.03c5.23,0.68 10.43,1.42 15.61,2.22l1.28 0.2c5.17,0.82 10.3,1.66 15.44,2.6l0.28 0.05 0.11 0.02c5.29,0.97 10.57,2.01 15.82,3.1l0.44 0.09c10.46,2.19 20.82,4.64 31.09,7.33l1.3 0.35c4.98,1.31 9.94,2.68 14.88,4.11l0.19 0.05c10.1,2.92 20.09,6.1 29.98,9.51l1.69 0.58c4.66,1.61 9.3,3.28 13.92,5l0.51 0.19c4.88,1.82 9.72,3.71 14.55,5.65l1.02 0.41c9.72,3.92 19.32,8.07 28.82,12.45l0.55 0.25c4.43,2.05 8.84,4.16 13.22,6.3l1.58 0.77c13.94,6.88 27.63,14.25 41,22.07l0.7 0.41 0.61 0.37c4.09,2.4 8.15,4.87 12.18,7.36l1.58 0.98c4.3,2.67 8.57,5.4 12.8,8.16l0.04 0.02c4.38,2.87 8.72,5.79 13.03,8.76l0.42 0.29c4.21,2.9 8.38,5.86 12.5,8.86l0.46 0.33c5.5,3.99 10.93,8.06 16.3,12.23l0.09 0.12c158.54,122.89 260.94,317.37 260.94,536.26 0,371.61 -295.03,672.87 -658.98,672.87 -197.73,0 -375.11,-88.95 -495.89,-229.78l-0.08 -0.04 -1.79 -2.11 -1 -1.18c-3.18,-3.76 -6.33,-7.56 -9.43,-11.39l-0.54 -0.66c-3.12,-3.86 -6.19,-7.75 -9.22,-11.68l-0.47 -0.6 -0.59 -0.77c-2.98,-3.87 -5.91,-7.78 -8.79,-11.72l-0.24 -0.34 -0.03 -0.05c-3.14,-4.29 -6.24,-8.63 -9.28,-13l-0.05 -0.07c-2.93,-4.22 -5.82,-8.47 -8.66,-12.75l-0.71 -1.09c-2.72,-4.13 -5.4,-8.27 -8.04,-12.47l-0.54 -0.86c-2.7,-4.31 -5.37,-8.66 -7.98,-13.04l-0.33 -0.54c-2.7,-4.56 -5.36,-9.13 -7.96,-13.75l-0.02 -0.04c-2.6,-4.62 -5.15,-9.27 -7.64,-13.95l-0.36 -0.67c-2.33,-4.4 -4.63,-8.84 -6.87,-13.3l-0.82 -1.63c-2.12,-4.24 -4.2,-8.51 -6.23,-12.8l-0.74 -1.56c-2.05,-4.35 -4.05,-8.72 -6,-13.13l-0.72 -1.61c-2.08,-4.7 -4.1,-9.43 -6.06,-14.18l-0.08 -0.18 -0.12 -0.3c-1.9,-4.6 -3.75,-9.21 -5.55,-13.86l-0.41 -1.04 -0.4 -1.07c-1.77,-4.61 -3.51,-9.25 -5.18,-13.91l-0.33 -0.92c-1.72,-4.8 -3.38,-9.63 -4.99,-14.48l-0.36 -1.07c-1.56,-4.71 -3.07,-9.45 -4.52,-14.21l-0.51 -1.68c-1.48,-4.88 -2.9,-9.78 -4.28,-14.7l-0.14 -0.48 -0.18 -0.66c-1.35,-4.87 -2.65,-9.75 -3.88,-14.65l-0.18 -0.72 -0.12 -0.5c-1.26,-5.02 -2.47,-10.07 -3.62,-15.13l-0.33 -1.46c-1.12,-5.01 -2.2,-10.04 -3.21,-15.09l-0.16 -0.79c-1.03,-5.14 -2,-10.3 -2.9,-15.48l-0.17 -0.99c-0.92,-5.28 -1.78,-10.59 -2.58,-15.9l-0.08 -0.52c-1.64,-10.96 -3.02,-22.03 -4.13,-33.17l-0.09 -0.94c-0.52,-5.32 -0.99,-10.65 -1.39,-16l-0.07 -0.87c-0.39,-5.16 -0.7,-10.32 -0.97,-15.51l-0.1 -2.04c-0.24,-5.01 -0.42,-10.03 -0.56,-15.06l-0.06 -2.1c-0.13,-5.52 -0.2,-11.06 -0.2,-16.62zm966.08 -1071.6c99.02,49.65 189.01,114.42 266.86,191.27 190.1,187.67 307.72,446.6 307.72,732.3 0,285.69 -117.62,544.63 -307.72,732.3 -189.24,186.82 -450.22,302.37 -738.07,302.37 -374.63,0 -703.19,-194.94 -887.88,-487.83 32.86,309.91 170.67,587.54 376.69,795.71 237.34,239.82 565.38,388.16 927.84,388.16 362.45,0 690.49,-148.35 927.82,-388.16 237.43,-239.91 384.3,-572.06 384.3,-939.55 0,-367.5 -146.86,-699.66 -384.29,-939.56 -225.37,-227.71 -532.53,-372.94 -873.27,-387.01zm-54.56 -360.64c194.14,0 380.57,33.49 553.95,95.02 -362.97,-285.42 -820.12,-455.55 -1316.98,-455.55 -591.19,0 -1126.16,240.81 -1513.16,630.15 -387.22,389.57 -626.74,928.29 -626.74,1523.79 0,1189.6 958.06,2153.95 2139.9,2153.95 591.18,0 1126.15,-240.83 1513.14,-630.16 78.08,-78.55 150.13,-163.18 215.45,-253.1 -272.76,195.41 -605.94,310.3 -965.56,310.3 -461.48,0 -879.4,-189.13 -1182.01,-494.89 -302.5,-305.67 -489.63,-727.26 -489.63,-1192.31 0,-465.06 187.11,-886.65 489.61,-1192.32 302.61,-305.76 720.54,-494.88 1182.02,-494.88zm-763.03 -720.02c689.9,0 1314.77,281.61 1767.31,736.88 452.3,455.04 732.06,1083.18 732.06,1776.55 0,693.37 -279.77,1321.51 -732.06,1776.55 -304.36,306.21 -686.69,533.85 -1114.31,650.1 759.36,-25.01 1444.49,-346.09 1945.87,-852.72 522.5,-527.95 845.68,-1258.03 845.68,-2065.05 0,-147.66 -10.87,-292.72 -31.74,-434.45 -89.76,-455.32 -262.48,-880.05 -501.47,-1257.16 -93.79,-133.25 -198.37,-258.17 -312.46,-373.46 -522.4,-527.86 -1244.25,-854.36 -2041.7,-854.36 -797.46,0 -1519.32,326.49 -2041.73,854.36 -404.11,408.34 -688.95,937.6 -797.29,1529.84 125.38,-281.16 300.65,-535.05 514.51,-750.21 452.54,-455.28 1077.42,-736.88 1767.33,-736.88zm557.18 -1256.6c49.24,0 98.21,1.17 146.92,3.36 -226.73,-53.71 -461.68,-85.72 -702.65,-93.62 -956.4,28.69 -1832.87,375.32 -2527.31,937.86 -46.38,42.48 -91.7,86.14 -135.85,131 -651.89,662.41 -1055.1,1578.14 -1055.1,2590.14 0,1011.99 403.21,1927.72 1055.1,2590.13 651.12,661.62 1550.89,1070.86 2544.91,1070.86 994.03,0 1893.8,-409.24 2544.91,-1070.86 193.08,-196.19 364.33,-414.61 509.77,-651.17 -27.74,30.2 -56.01,59.91 -84.84,89.04 -587.66,593.8 -1399.38,961.08 -2295.86,961.08 -896.47,0 -1708.23,-367.28 -2295.89,-961.08 -587.56,-593.7 -951,-1413.23 -951,-2317.81 0,-904.6 363.44,-1724.13 951,-2317.83 587.67,-593.8 1399.41,-961.09 2295.89,-961.09zm2654.49 1391.25c283.94,406.33 478.75,880.52 555.67,1393.56 49.42,253.57 75.38,515.68 75.38,783.93 0,1109.19 -442.93,2113.86 -1159.03,2841.5 -716.86,728.43 -1707,1178.98 -2800.49,1178.98 -1093.47,0 -2083.62,-450.56 -2800.49,-1178.98 -682.06,-693.08 -1116.29,-1637.46 -1156.02,-2684.1 -12.65,133.14 -19.2,268.04 -19.2,404.47 0,1166.13 472.66,2221.86 1236.82,2986.03 764.17,764.16 1819.9,1236.82 2986.03,1236.82 1166.14,0 2221.88,-472.66 2986.04,-1236.82 764.17,-764.17 1236.83,-1819.9 1236.83,-2986.03 0,-1166.14 -472.66,-2221.88 -1236.83,-2986.04 -92.28,-92.29 -188.87,-180.29 -289.34,-263.76 141.06,159.17 269.76,329.85 384.62,510.43z"/>
  <ellipse class="fil1" cx="4962.48" cy="3860.61" rx="658.97" ry="672.86"/>
 </g>
</svg>
